<svg fill="#ffffff" stroke="#ffffff" viewBox="144 144 512 512" xmlns="http://www.w3.org/2000/svg">
  <path d="m584.82 340.46c-4.3125-11.543-11.566-19.887-20.977-24.133-4.3203-1.9453-8.8516-2.9297-13.469-2.9297-19.703 0-39.727 18.367-49.82 45.711-12.496 33.871-5.2305 67.047 16.898 77.168 4.4492 2.0391 9.2148 3.0742 14.164 3.0742 20.07 0 40.469-16.844 50.754-41.914 7.7734-18.973 8.6875-40.27 2.4492-56.977z"/>
  <path d="m299.45 359.12c-10.098-27.344-30.117-45.711-49.824-45.711-4.6172 0-9.1523 0.98438-13.469 2.9297-9.4102 4.2422-16.664 12.59-20.977 24.133-6.2383 16.707-5.3242 38.004 2.4492 56.977 10.289 25.066 30.688 41.914 50.758 41.914 4.9492 0 9.7148-1.0352 14.164-3.0742 22.129-10.121 29.391-43.297 16.898-77.168z"/>
  <path d="m343.27 355.32c1.8242 0.078125 3.668 0.03125 5.4727-0.14844 10.613-1.043 20.211-6.4883 27.754-15.75 12.172-14.949 15.555-38.352 12.988-62.426-3.9141-37.098-23.465-64.789-49.73-65.93 0 0-3.75 0.007813-5.6562 0.19141-11.586 1.1445-22.121 7.168-30.461 17.41-12.094 14.859-17.906 36.969-15.551 59.141 3.8711 36.684 28.109 66.336 55.184 67.512z"/>
  <path d="m400 384.25c-62.977 0-125.95 74.855-125.95 146.74 0 21.449 10.758 38.703 21.32 45.773 13.047 8.7305 22.238 12.156 41.363 12.156 22.723 0 28.855-7.9492 39.492-14.961 7.6953-5.0703 14.34-9.4531 23.773-9.4531 9.4375 0 16.082 4.3828 23.773 9.4531 10.641 7.0117 16.773 14.961 39.496 14.961 19.125 0 28.316-3.4297 41.363-12.156 10.566-7.0703 21.32-24.324 21.32-45.773 0-71.883-62.973-146.74-125.95-146.74z"/>
  <path d="m451.44 355c1.8047 0.17969 3.6484 0.22656 5.4727 0.14844 27.07-1.1758 51.312-30.832 55.184-67.508 2.3555-22.172-3.457-44.285-15.551-59.141-8.3398-10.246-18.484-15.969-30.07-17.113-1.9062-0.18359-6.0469-0.30859-6.0469-0.30859-26.266 1.1406-45.816 28.648-49.734 65.75-2.5625 24.074 0.81641 47.477 12.988 62.426 7.5469 9.2578 17.145 14.703 27.758 15.746z"/>
</svg>
